<svg width="17" height="28" viewBox="0 0 17 28" fill="none" xmlns="http://www.w3.org/2000/svg">
<path d="M14.5711 0.788932C13.5527 0.0310729 12.2726 -0.193765 11.0568 0.170885L2.83311 2.63794C1.13894 3.14651 0 4.67604 0 6.44553V24.0224C0 25.2916 0.583888 26.4539 1.60214 27.2105C2.62059 27.9685 3.90214 28.1932 5.11648 27.8286L11.2555 25.9864C11.0635 25.3533 10.9663 24.6926 10.9663 24.0224V16.0399C10.9663 14.3637 11.5776 12.7627 12.6905 11.5347C13.5073 10.63 14.567 9.96257 15.7512 9.60623L16.1733 9.48565V3.97838C16.1733 2.70915 15.5894 1.54688 14.571 0.788932H14.5711Z" fill="#6C5DD3"/>
</svg>
